<svg width="24" height="23" viewBox="0 0 24 23" fill="none" xmlns="http://www.w3.org/2000/svg">
<path d="M21.4905 0H2.50948C1.85769 0.0198311 1.23936 0.288099 0.785446 0.747983C0.331535 1.20787 0.0776978 1.82325 0.0776978 2.46378C0.0776978 3.10431 0.331535 3.71969 0.785446 4.17958C1.23936 4.63946 1.85769 4.90773 2.50948 4.92756H21.4929C22.1447 4.90742 22.7629 4.63886 23.2166 4.17877C23.6703 3.71867 23.9238 3.10317 23.9235 2.46263C23.9232 1.8221 23.6691 1.20684 23.2149 0.747167C22.7608 0.287497 22.1423 0.0195217 21.4905 0V0ZM21.4905 9.03504H2.50948C1.85769 9.05487 1.23936 9.32314 0.785446 9.78302C0.331535 10.2429 0.0776978 10.8583 0.0776978 11.4988C0.0776978 12.1394 0.331535 12.7547 0.785446 13.2146C1.23936 13.6745 1.85769 13.9428 2.50948 13.9626H21.4929C22.1447 13.9428 22.7631 13.6745 23.217 13.2146C23.6709 12.7547 23.9247 12.1394 23.9247 11.4988C23.9247 10.8583 23.6709 10.2429 23.217 9.78302C22.7631 9.32314 22.1447 9.05487 21.4929 9.03504H21.4905ZM21.4905 18.0724H2.50948C1.85769 18.0923 1.23936 18.3605 0.785446 18.8204C0.331535 19.2803 0.0776978 19.8957 0.0776978 20.5362C0.0776978 21.1768 0.331535 21.7921 0.785446 22.252C1.23936 22.7119 1.85769 22.9802 2.50948 23H21.4929C22.1447 22.9802 22.7631 22.7119 23.217 22.252C23.6709 21.7921 23.9247 21.1768 23.9247 20.5362C23.9247 19.8957 23.6709 19.2803 23.217 18.8204C22.7631 18.3605 22.1447 18.0923 21.4929 18.0724H21.4905Z" fill="black"/>
</svg>
